# xmcd CD database file
#
# Track frame offsets:
#	150
#	22481
#	32673
#	46224
#	59094
#	71700
#	84909
#	95810
#	109034
#	120445
#	133197
#	143768
#	155606
#	166413
#	184116
#	200801
#
# Disc length: 2870 seconds
#
# Revision: 0
# Processed by: cddbd v1.5.2PL0 Copyright (c) Steve Scherf et al.
# Submitted via: CDex 1.51
#
DISCID=ee0b3410
DTITLE=Various Artist - Super Blues  Volume Three: Texas Greats
DYEAR=2009
DGENRE=Blues
TTITLE0=Lightnin' Hopkins - Houston Bound
TTITLE1=Albert Collins - Collins Shuffle
TTITLE2=Goree Carter - Come On Let's Boogie
TTITLE3=Frankie Lee Sims - Cross Country Blues
TTITLE4=Little Willie Littlefield - Boogie Woogie Playgirl
TTITLE5=Jesse Thomas - Let's Have Some Fun
TTITLE6=Smokey Hogg - You Gotta Go
TTITLE7=Lonnie Lyons - Sneaky Joe
TTITLE8=Earl Gilliam - Wrong Doing Woman
TTITLE9=Joe Hughes - I Can't Go  On This Way
TTITLE10=Royal Earl and The Swingin' Kools - Royal Earl Shuffle
TTITLE11=Johnny Copeland - Baby Please Don't Go
TTITLE12=Clarence ''Gatemouth'' Brown - The Grass Is Always Greener
TTITLE13=T-Bone Walker - Please Come Back To Me
TTITLE14=Johnny Winter - Kind Hearted Woman
TTITLE15=Buddy Ace - Houston Town
EXTD=YEAR: 2009
EXTT0=
EXTT1=
EXTT2=
EXTT3=
EXTT4=
EXTT5=
EXTT6=
EXTT7=
EXTT8=
EXTT9=
EXTT10=
EXTT11=
EXTT12=
EXTT13=
EXTT14=
EXTT15=
PLAYORDER=
